<svg aria-hidden="true" style="position: absolute; width: 0; height: 0; overflow: hidden;" version="1.1" xmlns="http://www.w3.org/2000/svg" xmlns:xlink="http://www.w3.org/1999/xlink">
<defs>
<symbol id="icon-linkedin" viewBox="0 0 30 32">
<path d="M25.444 26.517h-4.422v-6.929c0-1.653-0.032-3.78-2.304-3.78-2.306 0-2.658 1.798-2.658 3.659v7.051h-4.422v-14.251h4.247v1.941h0.058c0.593-1.118 2.037-2.302 4.194-2.302 4.48 0 5.31 2.95 5.31 6.79v7.821zM6.641 10.317c-1.417 0-2.566-1.149-2.566-2.566s1.149-2.566 2.566-2.566v0c1.417 0 2.566 1.149 2.566 2.566s-1.149 2.566-2.566 2.566v0zM8.86 26.517h-4.437v-14.251h4.437v14.251zM27.659 1.067h-25.455c-0.008-0-0.018-0-0.028-0-1.194 0-2.163 0.961-2.176 2.151v25.561c0.012 1.193 0.982 2.155 2.176 2.155 0.010 0 0.020-0 0.029-0h25.449c1.216 0 2.212-0.96 2.212-2.153v-25.559c0-1.19-0.996-2.155-2.212-2.155h0.004z"></path>
</symbol>
<symbol id="icon-github" viewBox="0 0 30 32">
<path d="M14.933 1.436c-0.003 0-0.006 0-0.009 0-8.247 0-14.933 6.686-14.933 14.933 0 6.561 4.231 12.134 10.114 14.138l0.105 0.031c0.747 0.139 1.022-0.322 1.022-0.719 0-0.354-0.013-1.295-0.021-2.539-4.151 0.9-5.028-2.005-5.028-2.005-0.681-1.722-1.662-2.182-1.662-2.182-1.353-0.926 0.107-0.907 0.107-0.907 1.498 0.105 2.285 1.536 2.285 1.536 1.333 2.285 3.497 1.626 4.352 1.244 0.132-0.966 0.516-1.623 0.943-1.997-3.315-0.373-6.801-1.658-6.801-7.381-0-0.027-0.001-0.058-0.001-0.090 0-1.514 0.584-2.892 1.54-3.92l-0.003 0.004c-0.166-0.378-0.672-1.894 0.132-3.953 0 0 1.25-0.399 4.107 1.532 1.119-0.317 2.404-0.501 3.732-0.503h0.002c1.329 0.003 2.615 0.186 3.834 0.527l-0.101-0.024c2.837-1.931 4.087-1.532 4.087-1.532 0.802 2.059 0.299 3.575 0.149 3.953 0.951 1.045 1.53 2.377 1.53 4.006 0 5.739-3.49 7.002-6.812 7.369 0.523 0.448 1.007 1.365 1.007 2.763 0 1.999-0.019 3.605-0.019 4.090 0 0.39 0.262 0.858 1.028 0.708 6.001-2.010 10.249-7.58 10.249-14.142 0-0.002 0-0.004 0-0.006v0c0-8.247-6.686-14.933-14.933-14.933v0z"></path>
</symbol>
<symbol id="icon-Ellipse" viewBox="0 0 32 32">
<path d="M32 16c0 8.837-7.163 16-16 16s-16-7.163-16-16c0-8.837 7.163-16 16-16s16 7.163 16 16z"></path>
</symbol>
</defs>
</svg>
